<svg width="25" height="26" viewBox="0 0 25 26" fill="none" xmlns="http://www.w3.org/2000/svg">
<path d="M12.5001 3.03134C15.3303 3.03134 15.6834 3.04176 16.7939 3.09384C17.9032 3.14592 18.6584 3.31988 19.323 3.57822C20.0105 3.8428 20.5897 4.20113 21.1689 4.77926C21.6985 5.29998 22.1084 5.92987 22.3699 6.62509C22.6272 7.28863 22.8022 8.04488 22.8543 9.15426C22.9032 10.2647 22.9168 10.6178 22.9168 13.448C22.9168 16.2782 22.9064 16.6313 22.8543 17.7418C22.8022 18.8511 22.6272 19.6063 22.3699 20.2709C22.1091 20.9665 21.6992 21.5966 21.1689 22.1168C20.648 22.6463 20.0181 23.0561 19.323 23.3178C18.6595 23.5751 17.9032 23.7501 16.7939 23.8022C15.6834 23.8511 15.3303 23.8647 12.5001 23.8647C9.66989 23.8647 9.31677 23.8543 8.20635 23.8022C7.09698 23.7501 6.34177 23.5751 5.67718 23.3178C4.98169 23.0568 4.35169 22.6469 3.83135 22.1168C3.30157 21.5961 2.8917 20.9662 2.63031 20.2709C2.37198 19.6074 2.19802 18.8511 2.14593 17.7418C2.09698 16.6313 2.08344 16.2782 2.08344 13.448C2.08344 10.6178 2.09385 10.2647 2.14593 9.15426C2.19802 8.04384 2.37198 7.28967 2.63031 6.62509C2.89097 5.92944 3.30094 5.29938 3.83135 4.77926C4.35184 4.24929 4.9818 3.83939 5.67718 3.57822C6.34177 3.31988 7.09593 3.14592 8.20635 3.09384C9.31677 3.04488 9.66989 3.03134 12.5001 3.03134ZM12.5001 8.23967C11.1188 8.23967 9.79401 8.78841 8.81725 9.76516C7.8405 10.7419 7.29177 12.0667 7.29177 13.448C7.29177 14.8293 7.8405 16.1541 8.81725 17.1309C9.79401 18.1076 11.1188 18.6563 12.5001 18.6563C13.8814 18.6563 15.2062 18.1076 16.1829 17.1309C17.1597 16.1541 17.7084 14.8293 17.7084 13.448C17.7084 12.0667 17.1597 10.7419 16.1829 9.76516C15.2062 8.78841 13.8814 8.23967 12.5001 8.23967V8.23967ZM19.2709 7.97926C19.2709 7.63392 19.1338 7.30273 18.8896 7.05855C18.6454 6.81436 18.3142 6.67717 17.9689 6.67717C17.6235 6.67717 17.2923 6.81436 17.0481 7.05855C16.804 7.30273 16.6668 7.63392 16.6668 7.97926C16.6668 8.32459 16.804 8.65578 17.0481 8.89997C17.2923 9.14416 17.6235 9.28134 17.9689 9.28134C18.3142 9.28134 18.6454 9.14416 18.8896 8.89997C19.1338 8.65578 19.2709 8.32459 19.2709 7.97926ZM12.5001 10.323C13.3289 10.323 14.1238 10.6522 14.7098 11.2383C15.2959 11.8243 15.6251 12.6192 15.6251 13.448C15.6251 14.2768 15.2959 15.0717 14.7098 15.6577C14.1238 16.2438 13.3289 16.573 12.5001 16.573C11.6713 16.573 10.8764 16.2438 10.2904 15.6577C9.70434 15.0717 9.3751 14.2768 9.3751 13.448C9.3751 12.6192 9.70434 11.8243 10.2904 11.2383C10.8764 10.6522 11.6713 10.323 12.5001 10.323V10.323Z" fill="white"/>
</svg>
