<svg width="25" height="25" viewBox="0 0 25 25" fill="none" xmlns="http://www.w3.org/2000/svg">
<path d="M22.2332 16.924V19.924C22.2343 20.2025 22.1773 20.4782 22.0657 20.7334C21.9541 20.9885 21.7905 21.2176 21.5853 21.4059C21.3801 21.5941 21.1378 21.7375 20.874 21.8267C20.6101 21.9159 20.3306 21.9491 20.0532 21.924C16.976 21.5896 14.0202 20.5381 11.4232 18.854C9.00704 17.3187 6.95855 15.2702 5.42321 12.854C3.73319 10.2452 2.68145 7.275 2.35321 4.184C2.32822 3.90747 2.36108 3.62876 2.44971 3.36563C2.53834 3.10249 2.68078 2.86069 2.86798 2.65562C3.05517 2.45056 3.28301 2.28671 3.537 2.17453C3.79099 2.06234 4.06555 2.00426 4.34321 2.004H7.34321C7.82852 1.99923 8.299 2.17108 8.66697 2.48754C9.03494 2.80399 9.27529 3.24345 9.34321 3.724C9.46983 4.68407 9.70466 5.62673 10.0432 6.534C10.1778 6.89193 10.2069 7.28092 10.1271 7.65488C10.0474 8.02885 9.86207 8.37211 9.59321 8.644L8.32321 9.914C9.74677 12.4175 11.8197 14.4904 14.3232 15.914L15.5932 14.644C15.8651 14.3751 16.2084 14.1899 16.5823 14.1101C16.9563 14.0303 17.3453 14.0595 17.7032 14.194C18.6105 14.5326 19.5531 14.7674 20.5132 14.894C20.999 14.9625 21.4426 15.2072 21.7597 15.5815C22.0769 15.9558 22.2454 16.4336 22.2332 16.924Z" stroke="#93CC38" stroke-width="2" stroke-linecap="round" stroke-linejoin="round"/>
</svg>
