<svg width="21" height="26" viewBox="0 0 21 26" fill="none" xmlns="http://www.w3.org/2000/svg">
<path d="M16.7907 0.736511H4.06343C3.099 0.736511 2.17408 1.06575 1.49213 1.6518C0.810176 2.23785 0.427063 3.03271 0.427063 3.86151V22.6115C0.427063 23.4403 0.810176 24.2352 1.49213 24.8212C2.17408 25.4073 3.099 25.7365 4.06343 25.7365H16.7907C17.7551 25.7365 18.68 25.4073 19.362 24.8212C20.044 24.2352 20.4271 23.4403 20.4271 22.6115V3.86151C20.4271 3.03271 20.044 2.23785 19.362 1.6518C18.68 1.06575 17.7551 0.736511 16.7907 0.736511ZM18.6089 22.6115C18.6089 23.0259 18.4173 23.4233 18.0763 23.7164C17.7354 24.0094 17.2729 24.174 16.7907 24.174H4.06343C3.58121 24.174 3.11875 24.0094 2.77778 23.7164C2.4368 23.4233 2.24524 23.0259 2.24524 22.6115V3.86151C2.24524 3.44711 2.4368 3.04968 2.77778 2.75666C3.11875 2.46363 3.58121 2.29901 4.06343 2.29901H16.7907C17.2729 2.29901 17.7354 2.46363 18.0763 2.75666C18.4173 3.04968 18.6089 3.44711 18.6089 3.86151V22.6115Z" fill="#93CC38"/>
<path d="M16.7907 5.42401H4.06342C3.82231 5.42401 3.59109 5.50632 3.42061 5.65283C3.25012 5.79935 3.15433 5.99806 3.15433 6.20526C3.15433 6.41246 3.25012 6.61118 3.42061 6.75769C3.59109 6.9042 3.82231 6.98651 4.06342 6.98651H16.7907C17.0318 6.98651 17.263 6.9042 17.4335 6.75769C17.604 6.61118 17.6998 6.41246 17.6998 6.20526C17.6998 5.99806 17.604 5.79935 17.4335 5.65283C17.263 5.50632 17.0318 5.42401 16.7907 5.42401Z" fill="#93CC38"/>
<path d="M16.7907 18.7053H4.06342C3.82231 18.7053 3.59109 18.7876 3.42061 18.9341C3.25012 19.0806 3.15433 19.2793 3.15433 19.4865C3.15433 19.6937 3.25012 19.8924 3.42061 20.0389C3.59109 20.1855 3.82231 20.2678 4.06342 20.2678H16.7907C17.0318 20.2678 17.263 20.1855 17.4335 20.0389C17.604 19.8924 17.6998 19.6937 17.6998 19.4865C17.6998 19.2793 17.604 19.0806 17.4335 18.9341C17.263 18.7876 17.0318 18.7053 16.7907 18.7053Z" fill="#93CC38"/>
<path d="M8.60889 4.64276H12.2453C12.4864 4.64276 12.7176 4.56045 12.8881 4.41394C13.0586 4.26743 13.1543 4.06871 13.1543 3.86151C13.1543 3.65431 13.0586 3.4556 12.8881 3.30908C12.7176 3.16257 12.4864 3.08026 12.2453 3.08026H8.60889C8.36778 3.08026 8.13657 3.16257 7.96608 3.30908C7.79559 3.4556 7.6998 3.65431 7.6998 3.86151C7.6998 4.06871 7.79559 4.26743 7.96608 4.41394C8.13657 4.56045 8.36778 4.64276 8.60889 4.64276Z" fill="#93CC38"/>
<path d="M10.4271 23.3928C11.1802 23.3928 11.7907 22.8681 11.7907 22.2209C11.7907 21.5737 11.1802 21.049 10.4271 21.049C9.67395 21.049 9.06343 21.5737 9.06343 22.2209C9.06343 22.8681 9.67395 23.3928 10.4271 23.3928Z" fill="#93CC38"/>
</svg>
