<svg width="21" height="26" viewBox="0 0 21 26" fill="none" xmlns="http://www.w3.org/2000/svg">
<path d="M10.4271 0.4245C7.7749 0.4245 5.23136 1.48229 3.35599 3.36519C1.48063 5.24808 0.427063 7.80184 0.427063 10.4647C0.427063 15.2376 5.58091 20.9682 9.91168 24.9379L10.4424 25.4245L10.9578 24.9225C15.7501 20.2886 20.4271 15.3689 20.4271 10.4647C20.4271 7.80184 19.3735 5.24808 17.4981 3.36519C15.6228 1.48229 13.0792 0.4245 10.4271 0.4245V0.4245ZM10.4271 23.3006C4.97322 18.1879 1.96552 13.6466 1.96552 10.4647C1.96552 8.21151 2.85701 6.05063 4.44385 4.45741C6.0307 2.86419 8.18292 1.96914 10.4271 1.96914C12.6712 1.96914 14.8234 2.86419 16.4103 4.45741C17.9971 6.05063 18.8886 8.21151 18.8886 10.4647C18.8886 14.5966 14.7809 19.0297 10.4271 23.3006Z" fill="#93CC38"/>
<path d="M10.4271 6.60309C9.66636 6.60309 8.92274 6.82957 8.29024 7.25389C7.65775 7.6782 7.16478 8.2813 6.87367 8.98692C6.58257 9.69253 6.5064 10.469 6.65481 11.218C6.80321 11.9671 7.16952 12.6552 7.70741 13.1953C8.24531 13.7353 8.93063 14.1031 9.67671 14.2521C10.4228 14.4011 11.1961 14.3246 11.8989 14.0323C12.6017 13.7401 13.2024 13.2451 13.625 12.6101C14.0476 11.975 14.2732 11.2284 14.2732 10.4647C14.2732 9.44053 13.868 8.45831 13.1467 7.73412C12.4254 7.00993 11.4471 6.60309 10.4271 6.60309ZM10.4271 12.7816C9.97064 12.7816 9.52447 12.6458 9.14497 12.3912C8.76547 12.1366 8.46969 11.7747 8.29503 11.3513C8.12036 10.928 8.07467 10.4621 8.16371 10.0127C8.25275 9.56322 8.47253 9.15038 8.79527 8.82635C9.11801 8.50232 9.5292 8.28165 9.97685 8.19225C10.4245 8.10285 10.8885 8.14873 11.3102 8.3241C11.7318 8.49946 12.0923 8.79643 12.3458 9.17745C12.5994 9.55847 12.7347 10.0064 12.7347 10.4647C12.7347 11.0792 12.4916 11.6685 12.0588 12.103C11.6261 12.5375 11.0391 12.7816 10.4271 12.7816V12.7816Z" fill="#93CC38"/>
</svg>
