<svg width="24" height="24" viewBox="0 0 24 24" fill="none" xmlns="http://www.w3.org/2000/svg">
<path d="M10.7748 4.3374H4.06645C3.55812 4.3374 3.0706 4.53934 2.71116 4.89878C2.35171 5.25823 2.14978 5.74574 2.14978 6.25407V19.6707C2.14978 20.1791 2.35171 20.6666 2.71116 21.026C3.0706 21.3855 3.55812 21.5874 4.06645 21.5874H17.4831C17.9914 21.5874 18.479 21.3855 18.8384 21.026C19.1978 20.6666 19.3998 20.1791 19.3998 19.6707V12.9624" stroke="#93CC38" stroke-width="2" stroke-linecap="round" stroke-linejoin="round"/>
<path d="M17.9623 2.89963C18.3435 2.51838 18.8606 2.3042 19.3998 2.3042C19.9389 2.3042 20.456 2.51838 20.8373 2.89963C21.2185 3.28088 21.4327 3.79796 21.4327 4.33713C21.4327 4.8763 21.2185 5.39338 20.8373 5.77463L11.7331 14.8788L7.89978 15.8371L8.85811 12.0038L17.9623 2.89963Z" stroke="#93CC38" stroke-width="2" stroke-linecap="round" stroke-linejoin="round"/>
</svg>
