<svg xmlns="http://www.w3.org/2000/svg" width="42.281" height="57.62" viewBox="0 0 42.281 57.62">
  <defs>
    <style>
      .cls-1 {
        fill: #93cc38;
        fill-rule: evenodd;
      }
    </style>
  </defs>
  <path id="nudilusiudantuatstatymas" class="cls-1" d="M482.977,1103.55c-0.013-.27-0.038-0.54-0.062-0.8-0.019-.22-0.034-0.44-0.062-0.65-0.032-.26-0.078-0.5-0.12-0.75q-0.114-.675-0.28-1.32c-0.046-.18-0.086-0.37-0.138-0.55-0.073-.25-0.16-0.48-0.244-0.72-0.061-.17-0.118-0.35-0.184-0.51-0.091-.23-0.192-0.45-0.294-0.67-0.077-.17-0.153-0.33-0.236-0.5-0.106-.2-0.22-0.4-0.336-0.6q-0.146-.24-0.3-0.48c-0.119-.18-0.24-0.35-0.367-0.52s-0.254-.33-0.386-0.48-0.246-.3-0.377-0.44c-0.166-.17-0.343-0.34-0.52-0.5-0.114-.1-0.222-0.21-0.341-0.31a9.337,9.337,0,0,0-.962-0.7c-1.665-1.05-4.574-.67-8.26-0.2a44.509,44.509,0,0,1-15.273,0c-3.686-.48-6.6-0.85-8.26.2-5.9,3.72-6.975,13.59-2.508,22.59a46.676,46.676,0,0,0-.435,6.68c0,10.68,2.922,20.76,7.815,26.97a1.155,1.155,0,0,0,1.242.39,1.122,1.122,0,0,0,.813-1c1.04-14.44,5.377-23.07,8.97-23.07,3.63,0,7.985,8.73,8.988,23.34a1.138,1.138,0,0,0,.8,1,1.349,1.349,0,0,0,.344.05,1.161,1.161,0,0,0,.9-0.42c5.035-6.19,8.042-16.38,8.042-27.26a42.473,42.473,0,0,0-.523-6.98,27.472,27.472,0,0,0,1.311-3.24c0-.01,0-0.01.006-0.01s0-.02.009-0.03c0.073-.23.132-0.45,0.2-0.67,0.093-.31.189-0.62,0.27-0.93,0.063-.24.113-0.48,0.169-0.72,0.067-.3.134-0.59,0.19-0.88,0.046-.24.084-0.47,0.122-0.71,0.047-.29.092-0.58,0.127-0.87,0.029-.23.053-0.46,0.074-0.69q0.041-.435.065-0.87c0.012-.22.023-0.45,0.028-0.67,0.007-.28,0-0.56,0-0.84C482.99,1103.99,482.988,1103.77,482.977,1103.55Zm-4.88,11.83a39.272,39.272,0,0,1,.551,6.94c0,9.01-2.122,17.48-5.77,23.35-1.244-11.55-4.963-22.31-11.006-22.31-5.976,0-9.692,10.59-10.97,21.98-3.523-5.86-5.571-14.2-5.571-23.02a43.7,43.7,0,0,1,.461-6.69,1.115,1.115,0,0,0-.109-0.68c-4.066-7.93-3.377-16.91,1.533-20,0.958-.61,3.887-0.22,6.717.14a60.744,60.744,0,0,0,7.939.67c1.241,0,2.472-.08,3.675-0.18l-5.026,4.9a1.112,1.112,0,0,0,.353,1.83l4.177,1.78-0.888,2.16a1.127,1.127,0,0,0,.032.92l2.76,5.59a1.153,1.153,0,0,0,1.034.63,1.942,1.942,0,0,0,.239-0.02l6.27-1.32,4.579,0.62c-0.264.67-.55,1.35-0.881,2.02A1.089,1.089,0,0,0,478.1,1115.38Zm1.722-4.89-5.209-.7a1.051,1.051,0,0,0-.4.02l-5.586,1.17-2.145-4.35,1.118-2.72a1.127,1.127,0,0,0-.611-1.46l-3.647-1.55,5.887-5.73,0.579-.08,1.676-.21c2.237-.27,4.275-0.42,5.041.07a7.985,7.985,0,0,1,.8.59c0.06,0.05.115,0.11,0.173,0.16,0.2,0.19.4,0.38,0.587,0.59l0.107,0.12C480.8,1099.49,481.4,1104.94,479.819,1110.49Z" transform="translate(-440.719 -1092.38)"/>
</svg>
