<svg xmlns="http://www.w3.org/2000/svg" width="71.938" height="52.97" viewBox="0 0 71.938 52.97">
  <defs>
    <style>
      .cls-1 {
        fill: #93cc38;
        fill-rule: evenodd;
      }
    </style>
  </defs>
  <path id="protezavimas" class="cls-1" d="M496.761,1495.2a0.637,0.637,0,0,0-.589-0.15,159.749,159.749,0,0,1-70.344,0,0.637,0.637,0,0,0-.589.15,0.655,0.655,0,0,0-.21.58l1.63,11.97c0,0.25.007,0.49,0.012,0.73,0.007,0.35.013,0.69,0.013,1.01,0,2.87.716,3.82,3.033,3.88,0.307,1.62,1.206,2.16,3.152,2.16a4.371,4.371,0,0,0,1.937-.32v0.01c0,4.17,1.653,4.88,5.36,4.88,2.473,0,4.031-.32,4.8-1.77,0,0.03,0,.05,0,0.07a4.676,4.676,0,0,0,2.513,4.53,16.912,16.912,0,0,0,11,0,4.676,4.676,0,0,0,2.513-4.53c0-3.23-.578-13.76-8.015-13.76-4.121,0-6.392,3.46-7.389,7.81,0.019-2.17-.17-4.51-1.574-5.98a5.908,5.908,0,0,0-7.649-.01,4.836,4.836,0,0,0-.365.44,6.487,6.487,0,0,0-.337-1.11,2.911,2.911,0,0,0-2.792-2.05h-0.007a2.9,2.9,0,0,0-2.9-2.16,2.809,2.809,0,0,0-2.1.83,3.2,3.2,0,0,0-.523.75l-0.585-4.26,4.719,1.33a1.031,1.031,0,0,0,.173.02,0.647,0.647,0,0,0,.621-0.48,0.654,0.654,0,0,0-.449-0.8l-5.258-1.48-0.13-.95a161.585,161.585,0,0,0,69.128,0l-0.211,1.55a158.96,158.96,0,0,1-34.87,3.84,0.656,0.656,0,0,0-.645.66,0.647,0.647,0,0,0,.645.65,162.081,162.081,0,0,0,34.681-3.76l-0.5,3.69a3.251,3.251,0,0,0-.53-0.76,2.809,2.809,0,0,0-2.1-.83,2.9,2.9,0,0,0-2.9,2.16h-0.007c-2.1,0-2.868,1.56-3.151,3.13a4.714,4.714,0,0,0-.343-0.41,5.94,5.94,0,0,0-7.649.01c-1.4,1.47-1.593,3.81-1.574,5.98-1-4.35-3.268-7.81-7.389-7.81-7.436,0-8.014,10.53-8.014,13.76a4.676,4.676,0,0,0,2.512,4.53,16.915,16.915,0,0,0,11,0,4.676,4.676,0,0,0,2.512-4.53v-0.07c0.764,1.45,2.321,1.77,4.794,1.77,3.707,0,5.36-.71,5.36-4.88v-0.01a4.35,4.35,0,0,0,1.936.32c1.946,0,2.845-.54,3.153-2.16,2.316-.06,3.032-1.01,3.032-3.88,0-.32.007-0.66,0.014-1.01,0-.24.009-0.48,0.012-0.73l1.629-11.97A0.655,0.655,0,0,0,496.761,1495.2Zm-43.786,10.75c6.239,0,6.724,9.53,6.724,12.45,0,3.02-1.822,4.14-6.724,4.14s-6.724-1.12-6.724-4.14c0-.4.012-1.11,0.078-2h3.392a0.65,0.65,0,0,0,0-1.3h-3.265C446.914,1511.31,448.375,1505.95,452.975,1505.95Zm-15.688,1.43a3.77,3.77,0,0,1,2.879-1.01,3.833,3.833,0,0,1,2.919,1.01c1.331,1.39,1.25,4.06,1.179,6.41-0.015.5-.029,0.98-0.029,1.43,0,3.04-.609,3.57-4.069,3.57s-4.07-.53-4.07-3.57c0-.43-0.011-0.88-0.024-1.36C436.012,1511.6,435.938,1508.78,437.287,1507.38Zm-2.338,2.22a20.746,20.746,0,0,0-.175,3.99,2.254,2.254,0,0,1-1.9.64,2.162,2.162,0,0,1-1.591-.36,3.747,3.747,0,0,1-.4-2.22c0-.32-0.007-0.67-0.014-1.03-0.036-1.87-.081-4.19.828-5.13a1.576,1.576,0,0,1,1.177-.44C433.368,1505.05,434.883,1505.24,434.949,1509.6Zm-6.16-6.27a1.538,1.538,0,0,1,1.177-.44,1.579,1.579,0,0,1,1.616,1.12,2.441,2.441,0,0,0-.811.57c-1.289,1.33-1.238,3.95-1.2,6.06,0.007,0.36.014,0.7,0.014,1.01,0,0.14,0,.28.006,0.41a1.731,1.731,0,0,1-1.218-.35,3.769,3.769,0,0,1-.4-2.22c0-.32-0.007-0.67-0.014-1.03C427.925,1506.59,427.88,1504.27,428.789,1503.33Zm40.236,19.21c-4.9,0-6.724-1.12-6.724-4.14,0-2.92.485-12.45,6.724-12.45a4.959,4.959,0,0,1,3.98,1.92h-4.151a0.65,0.65,0,0,0,0,1.3h5.022c1.741,3.23,1.873,7.91,1.873,9.23C475.749,1521.42,473.927,1522.54,469.025,1522.54Zm16.9-8.68c-0.013.48-.025,0.93-0.025,1.36,0,3.04-.608,3.57-4.069,3.57s-4.069-.53-4.069-3.57c0-.45-0.014-0.93-0.03-1.43-0.07-2.35-.151-5.02,1.18-6.41a3.833,3.833,0,0,1,2.919-1.01,3.77,3.77,0,0,1,2.879,1.01C486.062,1508.78,485.988,1511.6,485.928,1513.86Zm5.208-3.24c-0.007.36-.014,0.71-0.014,1.03a3.747,3.747,0,0,1-.4,2.22,2.162,2.162,0,0,1-1.591.36,3.06,3.06,0,0,1-1.91-.42,23.29,23.29,0,0,0-.132-3.97c0.015-3,.6-4.79,2.042-4.79a1.576,1.576,0,0,1,1.177.44C491.217,1506.43,491.172,1508.75,491.136,1510.62Zm2.889-1.13a3.769,3.769,0,0,1-.4,2.22,1.731,1.731,0,0,1-1.218.35c0-.13.006-0.27,0.006-0.41,0-.31.007-0.65,0.013-1.01,0.041-2.11.092-4.73-1.2-6.06a2.435,2.435,0,0,0-.812-0.57,1.581,1.581,0,0,1,1.617-1.12,1.538,1.538,0,0,1,1.177.44c0.909,0.94.864,3.26,0.828,5.13C494.032,1508.82,494.025,1509.17,494.025,1509.49Zm0.321,14.07c0.044-.81.045-1.54,0.045-2.06,0-3.06-.811-4-3.47-4-1.98,0-3.144.46-3.408,2.74h-0.086c-2.424,0-3.308.77-3.448,3.22a5.965,5.965,0,0,0-.609-0.02c-2.276,0-3.2.68-3.415,2.8-0.832-.79-2.164-0.98-4.058-0.98-3.09,0-4.687.51-5.046,3.29-0.707-1.49-2.214-1.81-4.646-1.81-3.544,0-5.125.68-5.125,4.67a20.355,20.355,0,0,0,.676,6.01c0.978,3.04,2.959,3.67,4.449,3.67,3.477,0,4.6-3.35,4.954-6.25,0.08,0.37.175,0.74,0.289,1.1,0.978,3.03,2.959,3.67,4.449,3.67,3.307,0,4.48-3.03,4.9-5.83a2.782,2.782,0,0,0,2.577,1.83c1.779,0,2.645-1.56,3.067-3.38a2.692,2.692,0,0,0,.99.19c1.586,0,2.445-1.24,2.913-2.8a2.773,2.773,0,0,0,.581.06,2.963,2.963,0,0,0,2.73-2.26l0.608,3.79-2.862,2.17a0.652,0.652,0,0,0-.131.91,0.644,0.644,0,0,0,.517.26,0.622,0.622,0,0,0,.386-0.13l2.323-1.76,0.19,1.2a25.3,25.3,0,0,1-7.158,6.31c-4.788,2.98-13.27,6.52-26.484,6.52s-21.7-3.54-26.486-6.52a25.274,25.274,0,0,1-7.157-6.31l0.245-1.54a27.542,27.542,0,0,0,7.018,6.04c4.938,3.08,13.672,6.76,27.24,6.76a0.65,0.65,0,0,0,0-1.3c-13.214,0-21.7-3.55-26.485-6.53a26.211,26.211,0,0,1-7.487-6.75l0.477-2.98a2.9,2.9,0,0,0,2.674,2.12,2.756,2.756,0,0,0,.58-0.06c0.468,1.56,1.328,2.8,2.914,2.8a2.683,2.683,0,0,0,.989-0.19c0.423,1.82,1.289,3.38,3.068,3.38a2.785,2.785,0,0,0,2.575-1.84c0.415,2.8,1.587,5.84,4.9,5.84,1.49,0,3.471-.64,4.448-3.67,0.115-.36.21-0.73,0.289-1.1,0.36,2.9,1.478,6.25,4.955,6.25,1.49,0,3.471-.63,4.448-3.67a20.322,20.322,0,0,0,.677-6.01c0-3.99-1.581-4.67-5.125-4.67-2.432,0-3.939.32-4.646,1.81-0.359-2.78-1.957-3.29-5.046-3.29-1.894,0-3.227.19-4.058,0.98-0.218-2.12-1.14-2.8-3.416-2.8a5.936,5.936,0,0,0-.608.02c-0.141-2.45-1.025-3.22-3.449-3.22h-0.085c-0.264-2.28-1.428-2.74-3.408-2.74-2.659,0-3.47.94-3.47,4,0,0.6,0,1.48.069,2.43l-1.6,9.98a0.655,0.655,0,0,0,.092.45c0.089,0.14,2.229,3.5,7.627,6.87,4.937,3.09,13.671,6.77,27.24,6.77s22.3-3.68,27.24-6.77c5.4-3.37,7.538-6.73,7.627-6.87a0.655,0.655,0,0,0,.092-0.45Zm-28.141,16.23c-3.379,0-3.834-4.24-3.834-8.38,0-1.54.216-2.37,0.724-2.79,0.57-.47,1.656-0.57,3.11-0.57s2.54,0.1,3.11.57c0.508,0.42.725,1.25,0.725,2.79C470.04,1537.13,468.821,1539.79,466.205,1539.79Zm9.692-1.49c-3.379,0-3.834-4.23-3.834-8.37,0-1.54.216-2.38,0.724-2.8,0.57-.47,1.656-0.56,3.11-0.56s2.54,0.09,3.11.56c0.508,0.42.725,1.26,0.725,2.8a22.543,22.543,0,0,1-.361,4.39h-2.317a0.655,0.655,0,0,0,0,1.31h1.966C478.4,1537.42,477.361,1538.3,475.9,1538.3Zm7.473-3.99h0c-0.315,0-1.258-.01-1.789-2.19a20.969,20.969,0,0,1-.388-4.68,3.782,3.782,0,0,1,.434-2.31,4.2,4.2,0,0,1,3.49,0,3.772,3.772,0,0,1,.435,2.31C485.55,1532,484.816,1534.31,483.37,1534.31Zm4.057-3.2a1.226,1.226,0,0,1-.754-0.23,27.779,27.779,0,0,0,.167-3.44c0-2.17-.406-3.27-1.582-3.73a2.924,2.924,0,0,1,.429-1.78,4.187,4.187,0,0,1,3.486,0,3.8,3.8,0,0,1,.434,2.31C489.607,1528.8,488.873,1531.11,487.427,1531.11Zm3.494-2.74a1.346,1.346,0,0,1-.288-0.03,24.794,24.794,0,0,0,.264-4.1c0-2.46-.523-3.55-2.106-3.88,0.139-1.4.605-1.55,2.13-1.55a2.423,2.423,0,0,1,1.745.38,1.7,1.7,0,0,1,.331.83h-1.062a0.65,0.65,0,0,0,0,1.3H493.1c0,0.06,0,.12,0,0.18C493.1,1526.06,492.367,1528.37,490.921,1528.37Zm-38.237.25c0.57-.47,1.656-0.57,3.111-0.57s2.54,0.1,3.11.57c0.507,0.42.724,1.25,0.724,2.79,0,4.14-.456,8.38-3.834,8.38-2.581,0-3.835-2.74-3.835-8.38C451.96,1529.87,452.177,1529.04,452.684,1528.62Zm-9.692-1.49c0.57-.47,1.656-0.56,3.111-0.56s2.54,0.09,3.11.56c0.507,0.42.724,1.26,0.724,2.8,0,4.14-.455,8.37-3.835,8.37-1.993,0-3.195-1.63-3.638-4.98h1.942a0.647,0.647,0,0,0,.646-0.65,0.656,0.656,0,0,0-.646-0.66h-1.974c-0.033,0-.065.01-0.1,0.01-0.045-.64-0.068-1.34-0.068-2.09C442.268,1528.39,442.485,1527.55,442.992,1527.13Zm-2.617-2a3.782,3.782,0,0,1,.434,2.31,20.969,20.969,0,0,1-.388,4.68c-0.533,2.19-1.48,2.19-1.791,2.19h0c-1.445,0-2.179-2.31-2.179-6.87a3.782,3.782,0,0,1,.434-2.31A4.2,4.2,0,0,1,440.375,1525.13Zm-4.062-3.2a2.924,2.924,0,0,1,.429,1.78c-1.177.46-1.582,1.56-1.582,3.73a27.779,27.779,0,0,0,.167,3.44,1.226,1.226,0,0,1-.754.23c-1.447,0-2.18-2.31-2.18-6.87a3.8,3.8,0,0,1,.434-2.31A4.187,4.187,0,0,1,436.313,1521.93Zm-6.979-2.74a2.423,2.423,0,0,1,1.745-.38c1.525,0,1.991.15,2.13,1.55-1.583.33-2.106,1.42-2.106,3.88a24.794,24.794,0,0,0,.264,4.1,1.346,1.346,0,0,1-.288.03c-1.161,0-1.862-1.49-2.093-4.44l0-.03a0.623,0.623,0,0,0-.029-0.31c-0.041-.64-0.061-1.33-0.061-2.09A3.8,3.8,0,0,1,429.334,1519.19Z" transform="translate(-425.031 -1495.03)"/>
</svg>
