<svg xmlns="http://www.w3.org/2000/svg" width="67.25" height="50.375" viewBox="0 0 67.25 50.375">
  <defs>
    <style>
      .cls-1 {
        fill: #93cc38;
        fill-rule: evenodd;
      }
    </style>
  </defs>
  <path id="perlodontologija" class="cls-1" d="M1041.54,981.828a1.185,1.185,0,1,1-1.19,1.185A1.183,1.183,0,0,1,1041.54,981.828Zm1.18,4.738a1.185,1.185,0,1,1-1.18,1.185A1.186,1.186,0,0,1,1042.72,986.566Zm1.19,4.739a1.185,1.185,0,1,1-1.19,1.185A1.186,1.186,0,0,1,1043.91,991.305Zm1.19,4.739a1.185,1.185,0,1,1-1.19,1.185A1.192,1.192,0,0,1,1045.1,996.044Zm1.19,4.736a1.185,1.185,0,1,1-1.19,1.19A1.184,1.184,0,0,1,1046.29,1000.78Zm1.18-7.105a1.185,1.185,0,1,1-1.18,1.184A1.185,1.185,0,0,1,1047.47,993.675Zm-1.18-4.739a1.185,1.185,0,1,1-1.19,1.185A1.183,1.183,0,0,1,1046.29,988.936Zm-1.19-4.739a1.185,1.185,0,1,1-1.19,1.185A1.192,1.192,0,0,1,1045.1,984.2Zm44.36-5.689a6.3,6.3,0,0,0-5.13-2.6,14.051,14.051,0,0,0-8.21,2.644,18.83,18.83,0,0,0-.45-2.241c-0.79-3-2.5-8.261-5-9.863-3.41-2.192-8.42-2.445-12.78-.648l-0.14.057c-0.06.028-.13,0.059-0.19,0.08-0.36.124-.63,0.229-0.86,0.317-0.56.215-.56,0.216-1.56-0.079-3.33-.982-7.58-1.958-10.9-0.785-4.72,1.669-7.01,8.005-7.4,13.613a17.3,17.3,0,0,0-5.64-2.573,6.167,6.167,0,0,0-6.06,1.793,6.383,6.383,0,0,0-1.43,6.318l8.86,27.412a4.394,4.394,0,0,0,4.2,3.05h40.43a4.382,4.382,0,0,0,4.19-3.05l8.98-27.769A6.256,6.256,0,0,0,1089.46,978.508Zm-44.42-10.889a8,8,0,0,1,2.66-.4,25.45,25.45,0,0,1,6.77,1.221c1.58,0.464,1.92.467,3.09,0.015,0.2-.077.45-0.174,0.78-0.288,0.12-.041.24-0.091,0.46-0.187,3.6-1.485,7.86-1.3,10.59.452,1.27,0.817,2.84,4.146,3.99,8.478a19.456,19.456,0,0,1,.59,4.215,28.934,28.934,0,0,1-.07,3.077,2.189,2.189,0,0,1-.02.255c-0.04.493-.08,0.987-0.14,1.482-0.01.034-.01,0.068-0.02,0.1-0.06.556-.14,1.113-0.23,1.668,0,0.013-.01.025-0.01,0.038-0.08.515-.17,1.03-0.26,1.541a2.512,2.512,0,0,0-.05.262c-0.1.515-.2,1.028-0.31,1.535V991.1c-0.11.508-.22,1.009-0.34,1.5-0.03.152-.07,0.3-0.1,0.455-0.08.361-.17,0.717-0.25,1.068-0.14.6-.28,1.188-0.42,1.772-0.28,1.144-.55,2.264-0.79,3.349l-0.22.988a26.791,26.791,0,0,1-2.52,7.7,2.537,2.537,0,0,1-.81,1.01h-0.01c-0.07-.02-0.64-0.22-1.56-2.46-0.02-.04-0.03-0.07-0.05-0.11a2.654,2.654,0,0,1-.11-0.3c-0.04-.09-0.08-0.18-0.12-0.28-0.01-.04-0.03-0.09-0.04-0.13-0.14-.38-0.29-0.8-0.45-1.28-0.2-.62-0.37-1.28-0.55-1.96-0.03-.1-0.05-0.2-0.08-0.31a20.524,20.524,0,0,0-1.27-3.725c-0.03-.075-0.08-0.146-0.12-0.222-0.13-.243-0.25-0.487-0.4-0.718a7.372,7.372,0,0,0-.59-0.8c-0.02-.023-0.03-0.051-0.05-0.074a7.986,7.986,0,0,0-.78-0.781s0,0-.01,0a6.716,6.716,0,0,0-.94-0.677,7.025,7.025,0,0,0-.63-0.328c-0.07-.031-0.14-0.056-0.21-0.085-0.14-.06-0.29-0.118-0.43-0.167-0.08-.026-0.16-0.046-0.24-0.068-0.14-.041-0.28-0.077-0.42-0.106-0.08-.016-0.17-0.031-0.25-0.044-0.13-.021-0.27-0.036-0.4-0.048-0.06,0-.12-0.018-0.17-0.02-0.03,0-.06,0-0.08,0-2.25-.084-4.48,1.219-6.23,3.77a25.073,25.073,0,0,0-2.79,6.194c-0.27.8-.54,1.6-0.85,2.4a4.641,4.641,0,0,1-1.53,2.39,0.053,0.053,0,0,1-.03-0.02,0.176,0.176,0,0,1-.05-0.04,0.5,0.5,0,0,1-.08-0.07l-0.06-.06-0.09-.12a0.55,0.55,0,0,1-.07-0.09c-0.04-.05-0.08-0.11-0.12-0.16a0.567,0.567,0,0,0-.08-0.13c-0.04-.07-0.09-0.15-0.13-0.23-0.03-.05-0.06-0.1-0.1-0.16-0.05-.09-0.1-0.2-0.15-0.3-0.04-.07-0.07-0.13-0.11-0.21-0.06-.12-0.12-0.26-0.19-0.41-0.03-.07-0.06-0.13-0.1-0.21-0.1-.23-0.21-0.49-0.33-0.77l-0.09-.22c-2.54-6.118-3.55-13.018-4.52-19.691-0.14-.944-0.27-1.884-0.41-2.816a0.06,0.06,0,0,1-.01-0.04,15.5,15.5,0,0,1-.16-1.812v-0.135l-0.01-.262C1039.07,975.831,1040.98,969.055,1045.04,967.619Zm43.07,15.835-8.98,27.766a2.029,2.029,0,0,1-1.93,1.41h-40.43a2.02,2.02,0,0,1-1.93-1.41l-8.87-27.41a3.955,3.955,0,0,1,.9-3.971,3.8,3.8,0,0,1,3.75-1.116,14.983,14.983,0,0,1,6.19,3.245,0.886,0.886,0,0,1,.02.163c0.04,0.527.08,1.041,0.16,1.525,0.14,0.927.27,1.863,0.41,2.8,0.99,6.818,2.02,13.871,4.68,20.261l0.09,0.22c0.13,0.33.3,0.72,0.48,1.11,0.04,0.1.08,0.19,0.13,0.29,0.06,0.13.13,0.26,0.2,0.4,0.06,0.11.12,0.23,0.19,0.35s0.14,0.23.21,0.35,0.15,0.25.24,0.37c0.07,0.1.15,0.19,0.23,0.29,0.1,0.11.19,0.24,0.29,0.35,0.08,0.08.18,0.15,0.26,0.23,0.11,0.09.22,0.2,0.34,0.28a1.728,1.728,0,0,0,.3.16,2.7,2.7,0,0,0,.38.19,2.136,2.136,0,0,0,.35.06,1.692,1.692,0,0,0,.38.07h0.31l0.35-.09c1.91-.81,2.63-2.65,3.11-3.87,0.32-.83.61-1.66,0.89-2.5a22.434,22.434,0,0,1,2.5-5.618c0.56-.817,2.04-2.668,3.94-2.733,0.08,0,.17,0,0.26.006a3.357,3.357,0,0,1,.64.124c0.06,0.019.13,0.044,0.2,0.068a4.384,4.384,0,0,1,.71.329,4.67,4.67,0,0,1,1.22,1.059,4.863,4.863,0,0,1,.33.48c0.04,0.062.09,0.117,0.13,0.181a15.805,15.805,0,0,1,1.48,4.154c0.19,0.72.38,1.43,0.59,2.09,0.12,0.35.23,0.69,0.35,1.02,0.01,0.04.03,0.08,0.04,0.11,0.11,0.32.23,0.62,0.35,0.93,0.03,0.06.05,0.12,0.08,0.18,0.11,0.29.24,0.57,0.37,0.84,0.03,0.06.06,0.13,0.09,0.2,0.13,0.26.27,0.51,0.41,0.74,0.03,0.06.07,0.12,0.1,0.18,0.15,0.23.3,0.45,0.46,0.65,0.03,0.04.07,0.09,0.1,0.13a4.364,4.364,0,0,0,.52.53c0.03,0.03.07,0.05,0.1,0.08a3.467,3.467,0,0,0,.59.38l0.09,0.03a2.157,2.157,0,0,0,.66.18,0.048,0.048,0,0,0,.04.01,2.224,2.224,0,0,0,.96-0.1,3.993,3.993,0,0,0,2.29-2.09,29.108,29.108,0,0,0,2.77-8.37l0.22-.977c0.22-.981.46-1.991,0.71-3.022a16.68,16.68,0,0,0,.34-1.927c0.02-.1.05-0.208,0.07-0.308q0.105-.454.21-0.914c0.05-.178.09-0.356,0.13-0.536,0.1-.474.21-0.949,0.31-1.428,0-.012.01-0.024,0.01-0.036q0.18-.821.33-1.647c0-.018.01-0.036,0.01-0.052,0.1-.538.2-1.077,0.29-1.617a0.2,0.2,0,0,1,.01-0.076,40.424,40.424,0,0,0,.52-4.991,1.672,1.672,0,0,1,.01-0.224c0.01-.526.02-1.05,0.01-1.572V981.4a11.665,11.665,0,0,1,7.97-3.12A3.965,3.965,0,0,1,1088.11,983.454Zm-15.7-1.626a1.185,1.185,0,1,1-1.19,1.185A1.183,1.183,0,0,1,1072.41,981.828Zm-1.19,4.738a1.185,1.185,0,1,1-1.19,1.185A1.186,1.186,0,0,1,1071.22,986.566Zm-1.19,4.739a1.185,1.185,0,1,1-1.19,1.185A1.186,1.186,0,0,1,1070.03,991.305Zm-1.19,4.739a1.185,1.185,0,1,1-1.18,1.185A1.185,1.185,0,0,1,1068.84,996.044Zm-1.18,4.736a1.185,1.185,0,1,1-1.19,1.19A1.184,1.184,0,0,1,1067.66,1000.78Zm-1.19-7.105a1.185,1.185,0,1,1-1.19,1.184A1.185,1.185,0,0,1,1066.47,993.675Zm1.19-4.739a1.185,1.185,0,1,1-1.19,1.185A1.183,1.183,0,0,1,1067.66,988.936Zm1.18-4.739a1.185,1.185,0,1,1-1.18,1.185A1.186,1.186,0,0,1,1068.84,984.2Z" transform="translate(-1023.44 -964.625)"/>
</svg>
