<svg xmlns="http://www.w3.org/2000/svg" width="44.406" height="61.594" viewBox="0 0 44.406 61.594">
  <defs>
    <style>
      .cls-1 {
        fill: #93cc38;
        fill-rule: evenodd;
      }
    </style>
  </defs>
  <path id="funkcinisplombavimas" class="cls-1" d="M477.715,961.12c-1.748-1.12-4.8-.719-8.675-0.208a46.588,46.588,0,0,1-16.04,0c-3.871-.513-6.926-0.913-8.674.207-6.2,3.974-7.326,14.53-2.635,24.154a50.814,50.814,0,0,0-.456,7.135c0,11.421,3.068,22.2,8.207,28.831a1.2,1.2,0,0,0,2.158-.65c1.092-15.44,5.648-24.659,9.421-24.659,3.813,0,8.386,9.329,9.439,24.949a1.193,1.193,0,0,0,.844,1.06,1.128,1.128,0,0,0,.36.06,1.208,1.208,0,0,0,.943-0.45c5.288-6.62,8.446-17.51,8.446-29.141a46,46,0,0,0-.549-7.454C485,975.439,483.8,965.026,477.715,961.12Zm-5.135,56.26c-1.307-12.36-5.213-23.861-11.559-23.861-6.276,0-10.179,11.321-11.521,23.5-3.7-6.26-5.851-15.18-5.851-24.611a47.421,47.421,0,0,1,.484-7.148,1.207,1.207,0,0,0-.114-0.726c-4.27-8.484-3.546-18.077,1.61-21.385,1.006-.644,4.082-0.238,7.055.154a48.828,48.828,0,0,0,16.674,0c2.976-.393,6.05-0.8,7.054-0.154,5.065,3.249,5.851,12.714,1.754,21.1a1.206,1.206,0,0,0-.1.741,42.763,42.763,0,0,1,.578,7.418C478.64,1002.04,476.411,1011.1,472.58,1017.38Zm-2.51-51.6a7.84,7.84,0,1,0,7.843,7.84A7.851,7.851,0,0,0,470.07,965.778Zm0,13.267a5.428,5.428,0,1,1,5.43-5.427A5.434,5.434,0,0,1,470.07,979.045Zm-19.909-3.618a4.825,4.825,0,1,0,4.827,4.825A4.831,4.831,0,0,0,450.161,975.427Zm0,7.237a2.413,2.413,0,1,1,2.413-2.413A2.416,2.416,0,0,1,450.161,982.664Z" transform="translate(-438.813 -960.406)"/>
</svg>
