<svg xmlns="http://www.w3.org/2000/svg" width="56.29" height="55.62" viewBox="0 0 56.29 55.62">
  <defs>
    <style>
      .cls-1 {
        fill: #93cc38;
        fill-rule: evenodd;
      }
    </style>
  </defs>
  <path id="dantubalinimas" class="cls-1" d="M1075.09,1501.68a1.092,1.092,0,0,0-1.3-.18l-4.9,2.67-4.9-2.67a1.093,1.093,0,0,0-1.49,1.48l2.7,4.86-2.7,4.87a1.093,1.093,0,0,0,1.49,1.48l4.9-2.67,4.9,2.67a1.067,1.067,0,0,0,.52.14,1.089,1.089,0,0,0,.96-1.62l-2.69-4.87,2.69-4.86A1.09,1.09,0,0,0,1075.09,1501.68Zm-4.72,6.69,1.17,2.11-2.12-1.16a1.073,1.073,0,0,0-1.06,0l-2.12,1.16,1.17-2.11a1.088,1.088,0,0,0,0-1.05l-1.17-2.11,2.12,1.16a1.108,1.108,0,0,0,1.06,0l2.12-1.16-1.17,2.11A1.088,1.088,0,0,0,1070.37,1508.37Zm-35.05,10.37,2.69-4.87a1.078,1.078,0,0,0-.19-1.29,1.09,1.09,0,0,0-1.3-.19l-4.9,2.68-4.9-2.68a1.1,1.1,0,0,0-1.3.19,1.076,1.076,0,0,0-.18,1.29l2.69,4.87-2.69,4.87a1.076,1.076,0,0,0,.18,1.29,1.11,1.11,0,0,0,1.3.19l4.9-2.68,4.9,2.68a1.122,1.122,0,0,0,.53.13,1.091,1.091,0,0,0,.77-0.32,1.078,1.078,0,0,0,.19-1.29Zm-2.21.52,1.16,2.11-2.12-1.16a1.094,1.094,0,0,0-.53-0.13,1.122,1.122,0,0,0-.53.13l-2.12,1.16,1.17-2.11a1.088,1.088,0,0,0,0-1.05l-1.17-2.1,2.12,1.15a1.108,1.108,0,0,0,1.06,0l2.12-1.15-1.16,2.1A1.038,1.038,0,0,0,1033.11,1519.26Zm43.27-23.25c-1.59-1.01-4.36-.65-7.88-0.19a42.435,42.435,0,0,1-14.57,0c-3.52-.46-6.29-0.82-7.88.19-5.63,3.59-6.65,13.13-2.39,21.82a44.821,44.821,0,0,0-.42,6.44c0,10.32,2.79,20.05,7.46,26.05a1.091,1.091,0,0,0,1.18.37,1.078,1.078,0,0,0,.78-0.96c0.99-13.95,5.13-22.28,8.56-22.28,3.46,0,7.62,8.43,8.57,22.53a1.094,1.094,0,0,0,.77.97,1.257,1.257,0,0,0,.33.05,1.106,1.106,0,0,0,.85-0.41c4.81-5.97,7.67-15.81,7.67-26.32a41.573,41.573,0,0,0-.49-6.73C1083,1508.94,1081.91,1499.54,1076.38,1496.01Zm-4.66,50.81c-1.19-11.16-4.74-21.55-10.5-21.55-5.7,0-9.25,10.23-10.47,21.23-3.36-5.66-5.31-13.71-5.31-22.23a41.55,41.55,0,0,1,.44-6.45,1.146,1.146,0,0,0-.11-0.66c-3.88-7.66-3.22-16.33,1.47-19.31,0.91-.59,3.7-0.22,6.4.13a44.464,44.464,0,0,0,15.15,0c2.7-.35,5.5-0.72,6.41-0.13,4.6,2.93,5.31,11.48,1.59,19.05a1.1,1.1,0,0,0-.09.67,38.394,38.394,0,0,1,.52,6.7C1077.22,1532.97,1075.2,1541.15,1071.72,1546.82Z" transform="translate(-1025.09 -1495.38)"/>
</svg>
