<svg xmlns="http://www.w3.org/2000/svg" width="57.68" height="57.87" viewBox="0 0 57.68 57.87">
  <defs>
    <style>
      .cls-1 {
        fill: #93cc38;
        fill-rule: evenodd;
      }
    </style>
  </defs>
  <path id="chirurgija" class="cls-1" d="M1070.64,1121.64l0.32-.32a5.72,5.72,0,0,0,.71-7.11l8.1-8.21a7.184,7.184,0,0,0,9.4-.74h0a7.431,7.431,0,0,0,0-10.4,7.2,7.2,0,0,0-10.25,0,7.45,7.45,0,0,0-.73,9.54l-8.1,8.21a5.52,5.52,0,0,0-7.01.72l-0.32.32-0.91-.92a5.51,5.51,0,0,0-7.02-.72l-5.72-5.8a7.135,7.135,0,0,0-6.94-1.83,4.97,4.97,0,0,1-5.09-1.59,5.124,5.124,0,0,1,.07-6.73,4.917,4.917,0,0,1,3.73-1.69,1.13,1.13,0,0,0,0-2.26,7.254,7.254,0,0,0-5.39,2.43,7.416,7.416,0,0,0-.09,9.73,7.15,7.15,0,0,0,7.35,2.29,4.914,4.914,0,0,1,4.78,1.25l5.73,5.8a5.721,5.721,0,0,0,.7,7.11l0.91,0.92-13.19,13.38a1.135,1.135,0,0,0,0,1.6,1.111,1.111,0,0,0,1.58,0l21.39-21.69a3.32,3.32,0,0,1,4.73,0,3.41,3.41,0,0,1,0,4.79l-27.17,27.55-4.73-4.8,2.77-2.8a1.153,1.153,0,0,0,0-1.6,1.111,1.111,0,0,0-1.58,0l-3.55,3.61a1.123,1.123,0,0,0,0,1.59l6.3,6.4a1.112,1.112,0,0,0,.79.33h0a1.112,1.112,0,0,0,.79-0.33l20.55-20.83,5.52-5.6,18.38,18.64-4.74,4.79-16.32-16.55a1.1,1.1,0,0,0-1.57,0,1.135,1.135,0,0,0,0,1.6l17.11,17.35a1.1,1.1,0,0,0,1.57,0l6.31-6.4a1.123,1.123,0,0,0,0-1.59Zm9.86-25.18a5,5,0,0,1,7.1,0,5.162,5.162,0,0,1,0,7.2,4.968,4.968,0,0,1-7.1,0A5.143,5.143,0,0,1,1080.5,1096.46Zm-24.05,23.59-0.91-.93a3.429,3.429,0,0,1,0-4.79h0a3.3,3.3,0,0,1,4.73,0l0.91,0.92Z" transform="translate(-1033.63 -1092.13)"/>
</svg>
