<svg xmlns="http://www.w3.org/2000/svg" width="51.75" height="60.22" viewBox="0 0 51.75 60.22">
  <defs>
    <style>
      .cls-1 {
        fill: #93cc38;
        fill-rule: evenodd;
      }
    </style>
  </defs>
  <path id="implantavimas" class="cls-1" d="M1081.13,1234.47c-0.83-3.1-3.24-6.07-6.8-8.35-4.38-2.8-10.58-3.12-16.17-.81l-0.19.08c-0.1.04-.19,0.08-0.28,0.11-0.47.17-.83,0.31-1.13,0.42-0.93.36-.93,0.36-2.46-0.09-4.37-1.28-9.93-2.56-14.19-1.06-5.78,2.04-10.9,8.79-9.32,19.26,0.19,1.23.37,2.47,0.55,3.72,0.44,2.96.89,6.03,1.41,9.06h0a5.105,5.105,0,0,0,5.02,4.22,4.87,4.87,0,0,0,1.31-.18,51.222,51.222,0,0,1,7.72-1.42l1.34,6.09-2.36.43a1,1,0,0,0,.17,1.99,1.366,1.366,0,0,0,.19-0.02l2.43-.44,0.87,3.96-2.67.53a1,1,0,0,0,.19,1.99,1.355,1.355,0,0,0,.2-0.02l2.71-.54,0.93,4.24-2,.35a1,1,0,0,0,.18,1.99,1.028,1.028,0,0,0,.17-0.01l2.08-.37,0.97,4.4h9.68l1.43-6.52,2.98-.52a1.009,1.009,0,0,0,.81-1.17,0.992,0.992,0,0,0-1.16-.81l-2.16.38,1.09-4.95,2.45-.48a1.005,1.005,0,1,0-.4-1.97l-1.58.31,0.87-3.98,2.1-.38a1.006,1.006,0,0,0-.36-1.98l-1.27.23,0.6-2.76a51.111,51.111,0,0,1,6.66,1.14,5.136,5.136,0,0,0,3.96-.61,4.973,4.973,0,0,0,2.28-3.16C1081.68,1249.34,1083,1241.5,1081.13,1234.47Zm-21.07,47.52h-6.44l-0.6-2.74,7.95-1.4Zm1.37-6.26-8.84,1.56-0.94-4.28,10.86-2.17Zm1.55-7.03-11.76,2.34-0.87-3.92,13.51-2.44Zm1.35-6.15-14.41,2.61-1.3-5.93a2.825,2.825,0,0,1,.29-0.02c0.29-.03.58-0.05,0.88-0.07l1.41-.09c0.27-.01.54-0.03,0.82-0.04l1.67-.06c0.23,0,.45-0.01.68-0.02,0.81-.01,1.63-0.02,2.47-0.02,0.81,0,1.59,0,2.35.02,0.39,0,.76.02,1.13,0.03l1.03,0.03c0.5,0.02.99,0.04,1.48,0.07l0.49,0.03c0.57,0.03,1.13.07,1.69,0.11,0.02,0,.04.01,0.06,0.01Zm13.68-6.23a2.981,2.981,0,0,1-1.36,1.9,3.136,3.136,0,0,1-2.43.37,50.558,50.558,0,0,0-6.7-1.16v-0.01l-0.58-.06a97.915,97.915,0,0,0-10.1-.46c-0.91,0-1.8.01-2.66,0.03-0.24,0-.47.02-0.71,0.02-0.61.02-1.22,0.04-1.8,0.07-0.35.01-.68,0.04-1.02,0.06-0.45.02-.9,0.05-1.35,0.08-0.41.03-.81,0.07-1.21,0.11l-0.8.06-1.12.12v0.01a51.809,51.809,0,0,0-7.83,1.46,3.024,3.024,0,0,1-2.41-.37,3.069,3.069,0,0,1-1.39-2.09c-0.53-3-.97-6.05-1.4-9-0.19-1.25-.37-2.49-0.55-3.73-1.02-6.73,1.05-14.62,7.99-17.07,3.76-1.32,9.19-.01,12.95,1.09,2.01,0.59,2.33.6,3.76,0.04,0.28-.11.61-0.24,1.06-0.39,0.14-.05.28-0.11,0.42-0.17l0.16-.07c5-2.05,10.48-1.81,14.31.65,3.14,2.01,5.24,4.55,5.94,7.17C1080.94,1241.59,1079.66,1249.14,1078.01,1256.32Z" transform="translate(-1030.31 -1223.78)"/>
</svg>
