<svg xmlns="http://www.w3.org/2000/svg" width="49.94" height="66" viewBox="0 0 49.94 66">
  <defs>
    <style>
      .cls-1 {
        fill: #93cc38;
        fill-rule: evenodd;
      }
    </style>
  </defs>
  <path id="higiena" class="cls-1" d="M1081.38,1372.73a12.869,12.869,0,0,0,.58-4.19,13.008,13.008,0,0,0-13-12.54h-0.22a8.273,8.273,0,0,0-7,3.96,5.609,5.609,0,0,1-9.48,0,8.273,8.273,0,0,0-7-3.96h-0.22a13.015,13.015,0,0,0-13,12.54,12.869,12.869,0,0,0,.58,4.19l1,3.1h0l3.62,11.21c0.01,5.6,1.2,14.12,3.85,19.78l5.94,12.7a3.649,3.649,0,0,0,3.4,2.48h0.03a3.594,3.594,0,0,0,2.54-1.04,3.523,3.523,0,0,0,1.07-2.54,0.9,0.9,0,0,0-.04-0.28c-1.17-4.09-3.53-15.6-.36-19.76a3.908,3.908,0,0,1,3.33-1.55,3.83,3.83,0,0,1,3.25,1.51c3.17,4.13.87,15.65-.28,19.73a0.9,0.9,0,0,0-.04.28,3.7,3.7,0,0,0,3.31,3.64c0.1,0.01.2,0.01,0.31,0.01a3.589,3.589,0,0,0,3.4-2.41l5.97-12.78c2.64-5.66,3.83-14.17,3.84-19.77l4.05-12.55v-0.01Zm-47.27-4.13a10.943,10.943,0,0,1,10.93-10.55h0.21a6.232,6.232,0,0,1,5.25,2.99,7.691,7.691,0,0,0,13,0,6.232,6.232,0,0,1,5.25-2.99h0.21a10.943,10.943,0,0,1,10.93,10.55,10.648,10.648,0,0,1-.49,3.51l-0.34,1.08a222.07,222.07,0,0,0-13.58,14.17v1.02a55.029,55.029,0,0,1-8.48.68c-1.04,0-2.05-.03-3.04-0.09a5.107,5.107,0,0,0-5.12-5.04h-0.32v-0.32a5.1,5.1,0,0,0-5.12-5.07h-0.43a5.109,5.109,0,0,0-5-4.04h-2.6l-0.77-2.39A10.648,10.648,0,0,1,1034.11,1368.6Zm1.92,7.95h1.94a3.034,3.034,0,0,1,3.04,3.02,1.026,1.026,0,0,0,1.03,1.02h1.36a3.043,3.043,0,0,1,3.05,3.02v1.35a1.026,1.026,0,0,0,1.03,1.02h1.36a3.034,3.034,0,0,1,3.04,2.83,56.913,56.913,0,0,1-12.77-2.72Zm38.71,10.02a0.912,0.912,0,0,0-.05.33c0.02,5.37-1.12,13.62-3.65,19.05l-5.99,12.83a0.487,0.487,0,0,0-.04.11,1.542,1.542,0,0,1-1.6,1.05,1.638,1.638,0,0,1-1.4-1.47c0.47-1.74,4.14-15.82-.1-21.37a5.863,5.863,0,0,0-4.91-2.32,5.922,5.922,0,0,0-4.98,2.36c-4.25,5.58-.51,19.66-0.02,21.4a1.494,1.494,0,0,1-.45.96,1.553,1.553,0,0,1-1.09.45h-0.01a1.609,1.609,0,0,1-1.47-1.13c-0.02-.04-0.03-0.07-0.05-0.11l-5.96-12.75c-2.32-4.97-3.47-12.29-3.64-17.62a59.361,59.361,0,0,0,17.67,2.78,58.4,58.4,0,0,0,12.46-1.4,1.03,1.03,0,0,0-.45-2.01c-0.49.11-.97,0.21-1.46,0.3v-0.65a5.457,5.457,0,0,1,5.48-5.42h0.29a1.029,1.029,0,0,0,1.03-1.03v-0.28a5.438,5.438,0,0,1,3.99-5.22Zm-36.16-4.13a1.046,1.046,0,0,1-.3-0.73,1.041,1.041,0,0,1,1.03-1.03,1.037,1.037,0,0,1,.74.31,1.022,1.022,0,0,1,.3.72,1.046,1.046,0,0,1-.3.73,1.07,1.07,0,0,1-.74.3A1.046,1.046,0,0,1,1038.58,1382.44Zm4.45,3.57a1.022,1.022,0,0,1-.3-0.72,1.046,1.046,0,0,1,.3-0.73,1.07,1.07,0,0,1,.74-0.3,1.024,1.024,0,0,1,1.03,1.03,1.022,1.022,0,0,1-.3.72,1,1,0,0,1-.73.3A1.027,1.027,0,0,1,1043.03,1386.01Zm29.76-2.16a1.046,1.046,0,0,1,.3.73,1.022,1.022,0,0,1-.3.72,1,1,0,0,1-.73.3,1.024,1.024,0,0,1-1.04-1.02,1.046,1.046,0,0,1,.3-0.73,1.07,1.07,0,0,1,.74-0.3A1.046,1.046,0,0,1,1072.79,1383.85Z" transform="translate(-1032.03 -1356)"/>
</svg>
