<svg width="25" height="26" viewBox="0 0 25 26" fill="none" xmlns="http://www.w3.org/2000/svg">
<g clip-path="url(#clip0_11_54)">
<path d="M3.12512 4.073H21.8751C22.1514 4.073 22.4163 4.18274 22.6117 4.3781C22.807 4.57345 22.9168 4.8384 22.9168 5.11466V21.7813C22.9168 22.0576 22.807 22.3226 22.6117 22.5179C22.4163 22.7133 22.1514 22.823 21.8751 22.823H3.12512C2.84885 22.823 2.5839 22.7133 2.38855 22.5179C2.1932 22.3226 2.08345 22.0576 2.08345 21.7813V5.11466C2.08345 4.8384 2.1932 4.57345 2.38855 4.3781C2.5839 4.18274 2.84885 4.073 3.12512 4.073V4.073ZM12.5626 13.1178L5.88345 7.44591L4.53449 9.03341L12.5762 15.8615L20.473 9.02821L19.1105 7.45216L12.5637 13.1178H12.5626Z" fill="white"/>
</g>
<defs>
<clipPath id="clip0_11_54">
<rect width="25" height="25" fill="white" transform="translate(0.00012207 0.947998)"/>
</clipPath>
</defs>
</svg>
