<svg width="25" height="26" viewBox="0 0 25 26" fill="none" xmlns="http://www.w3.org/2000/svg">
<g clip-path="url(#clip0_11_35)">
<path d="M21.8751 18.0522V21.7355C21.8752 21.9992 21.7753 22.2532 21.5955 22.4461C21.4157 22.6391 21.1695 22.7566 20.9064 22.7751C20.4512 22.8063 20.0793 22.823 19.7918 22.823C10.5866 22.823 3.12512 15.3615 3.12512 6.15633C3.12512 5.86883 3.14075 5.49696 3.17304 5.04175C3.1915 4.77867 3.30906 4.53238 3.502 4.35259C3.69494 4.1728 3.9489 4.07288 4.21262 4.073H7.89596C8.02516 4.07287 8.14981 4.12077 8.24567 4.20739C8.34154 4.29402 8.40178 4.41319 8.41471 4.54175C8.43866 4.78133 8.46054 4.97196 8.48137 5.11675C8.68839 6.56146 9.11263 7.96657 9.73971 9.28446C9.83866 9.49279 9.77408 9.74175 9.58658 9.87508L7.33866 11.4813C8.71309 14.6839 11.2653 17.2361 14.4678 18.6105L16.072 16.3667C16.1376 16.2751 16.2332 16.2093 16.3423 16.181C16.4514 16.1526 16.567 16.1634 16.6689 16.2115C17.9866 16.8374 19.3914 17.2606 20.8355 17.4667C20.9803 17.4876 21.171 17.5105 21.4085 17.5334C21.5368 17.5466 21.6557 17.6069 21.7422 17.7028C21.8286 17.7986 21.8763 17.9231 21.8762 18.0522H21.8751Z" fill="white"/>
</g>
<defs>
<clipPath id="clip0_11_35">
<rect width="25" height="25" fill="white" transform="translate(0.00012207 0.947998)"/>
</clipPath>
</defs>
</svg>
