<svg width="81" height="81" viewBox="0 0 81 81" fill="none" xmlns="http://www.w3.org/2000/svg">
<circle cx="40.5339" cy="40.9763" r="39" stroke="#93CC38" stroke-width="2"/>
<path d="M52.2007 39.3097H32.434L38.484 32.043C38.7669 31.7027 38.903 31.2639 38.8624 30.8232C38.8218 30.3825 38.6077 29.9759 38.2674 29.693C37.927 29.4101 37.4882 29.274 37.0475 29.3147C36.6068 29.3553 36.2002 29.5693 35.9173 29.9097L27.584 39.9097C27.528 39.9892 27.4778 40.0728 27.434 40.1597C27.434 40.243 27.434 40.293 27.3174 40.3764C27.2418 40.5675 27.2023 40.7709 27.2007 40.9764C27.2023 41.1819 27.2418 41.3853 27.3174 41.5764C27.3174 41.6597 27.3174 41.7097 27.434 41.793C27.4778 41.8799 27.528 41.9635 27.584 42.043L35.9173 52.043C36.0741 52.2312 36.2703 52.3825 36.4921 52.4862C36.7139 52.5899 36.9558 52.6434 37.2007 52.643C37.5901 52.6438 37.9675 52.5082 38.2674 52.2597C38.4361 52.1198 38.5756 51.948 38.6779 51.754C38.7801 51.5601 38.8431 51.348 38.8632 51.1297C38.8834 50.9114 38.8602 50.6912 38.7952 50.4819C38.7301 50.2726 38.6244 50.0781 38.484 49.9097L32.434 42.643H52.2007C52.6427 42.643 53.0666 42.4674 53.3792 42.1549C53.6918 41.8423 53.8673 41.4184 53.8673 40.9764C53.8673 40.5343 53.6918 40.1104 53.3792 39.7979C53.0666 39.4853 52.6427 39.3097 52.2007 39.3097Z" fill="#93CC38"/>
</svg>
