<svg width="81" height="81" viewBox="0 0 81 81" fill="none" xmlns="http://www.w3.org/2000/svg">
<circle cx="40.5339" cy="40.9763" r="39" fill="#93CC38" stroke="#93CC38" stroke-width="2"/>
<path d="M28.8672 39.3097H48.6339L42.5839 32.043C42.301 31.7027 42.1649 31.2639 42.2055 30.8232C42.2461 30.3825 42.4602 29.9759 42.8005 29.693C43.1409 29.4101 43.5797 29.274 44.0204 29.3147C44.4611 29.3553 44.8676 29.5693 45.1505 29.9097L53.4839 39.9097C53.5399 39.9892 53.5901 40.0728 53.6339 40.1597C53.6339 40.243 53.6339 40.293 53.7505 40.3764C53.8261 40.5675 53.8656 40.7709 53.8672 40.9764C53.8656 41.1819 53.8261 41.3853 53.7505 41.5764C53.7505 41.6597 53.7505 41.7097 53.6339 41.793C53.5901 41.8799 53.5399 41.9635 53.4839 42.043L45.1505 52.043C44.9938 52.2312 44.7976 52.3825 44.5758 52.4862C44.354 52.5899 44.112 52.6434 43.8672 52.643C43.4778 52.6438 43.1004 52.5082 42.8005 52.2597C42.6318 52.1198 42.4923 51.948 42.39 51.754C42.2877 51.5601 42.2248 51.348 42.2046 51.1297C42.1845 50.9114 42.2076 50.6912 42.2727 50.4819C42.3378 50.2726 42.4435 50.0781 42.5839 49.9097L48.6339 42.643H28.8672C28.4252 42.643 28.0012 42.4674 27.6887 42.1549C27.3761 41.8423 27.2005 41.4184 27.2005 40.9764C27.2005 40.5343 27.3761 40.1104 27.6887 39.7979C28.0012 39.4853 28.4252 39.3097 28.8672 39.3097Z" fill="white"/>
</svg>
